<?xml version="1.0"?>
<svg xmlns="http://www.w3.org/2000/svg" height="512px" viewBox="-45 0 327 327" width="512px"><g><path d="m158 0h71c4.417969 0 8 3.582031 8 8v311c0 4.417969-3.582031 8-8 8h-71c-4.417969 0-8-3.582031-8-8v-311c0-4.417969 3.582031-8 8-8zm0 0" data-original="#000000" class="active-path" data-old_color="#000000" fill="#FFFFFF"/><path d="m8 0h71c4.417969 0 8 3.582031 8 8v311c0 4.417969-3.582031 8-8 8h-71c-4.417969 0-8-3.582031-8-8v-311c0-4.417969 3.582031-8 8-8zm0 0" data-original="#000000" class="active-path" data-old_color="#000000" fill="#FFFFFF"/></g> </svg>
